# xmcd CD database file
#
# Track frame offsets:
#	150
#	61978
#	110605
#	189740
#	234320
#	268655
#
# Disc length: 4115 seconds
#
# Revision: 0
# Processed by: cddbd v1.5.1PL2 Copyright (c) Steve Scherf et al.
# Submitted via: CDex 1.51
#
DISCID=50101106
DTITLE=Brad Meldau - Art Of The Trio Volume 4
DYEAR=2000
DGENRE=Jazz
TTITLE0=All The Things You Are
TTITLE1=Sehnsucht
TTITLE2=Nice Pass
TTITLE3=Solar
TTITLE4=London Blues
TTITLE5=Exit Music For A Film
EXTD=YEAR: 2000
EXTT0=
EXTT1=
EXTT2=
EXTT3=
EXTT4=
EXTT5=
PLAYORDER=
